<mxfile host="65bd71144e">
    <diagram id="Q6zRdapSOg1j7NtgGEZH" name="Seite-1">
        <mxGraphModel dx="1822" dy="1666" grid="1" gridSize="10" guides="1" tooltips="1" connect="1" arrows="1" fold="1" page="1" pageScale="1" pageWidth="827" pageHeight="1169" math="0" shadow="0">
            <root>
                <mxCell id="0"/>
                <mxCell id="1" parent="0"/>
                <mxCell id="jC2d6KhwjWWk40cOjQq3-38" value="&lt;font style=&quot;font-size: 33px&quot;&gt;&amp;nbsp;Holder&lt;/font&gt;" style="rounded=0;whiteSpace=wrap;html=1;fontSize=20;strokeWidth=3;fillColor=#dae8fc;strokeColor=#6c8ebf;align=left;verticalAlign=top;" parent="1" vertex="1">
                    <mxGeometry x="-510" y="-1010" width="280" height="770" as="geometry"/>
                </mxCell>
                <mxCell id="jC2d6KhwjWWk40cOjQq3-37" value="&lt;font style=&quot;font-size: 33px&quot;&gt;Issuer&amp;nbsp;&lt;/font&gt;" style="rounded=0;whiteSpace=wrap;html=1;fontSize=20;strokeWidth=3;fillColor=#fff2cc;strokeColor=#d6b656;align=right;verticalAlign=top;" parent="1" vertex="1">
                    <mxGeometry x="-230" y="-1010" width="610" height="312" as="geometry"/>
                </mxCell>
                <mxCell id="5c4Ob_BE5MfwwZ4g9xx3-62" value="&lt;font style=&quot;font-size: 33px&quot;&gt;&lt;br&gt;&lt;br&gt;VDR&amp;nbsp;&lt;/font&gt;" style="rounded=0;whiteSpace=wrap;html=1;fontSize=20;strokeWidth=3;fillColor=#d5e8d4;strokeColor=#82b366;align=right;verticalAlign=bottom;" parent="1" vertex="1">
                    <mxGeometry x="-230" y="-698" width="610" height="458" as="geometry"/>
                </mxCell>
                <mxCell id="5c4Ob_BE5MfwwZ4g9xx3-5" value="PRIVATE_CRED_DEF" style="swimlane;fontStyle=1;childLayout=stackLayout;horizontal=1;startSize=26;fillColor=#FFFFFF;horizontalStack=0;resizeParent=1;resizeParentMax=0;resizeLast=0;collapsible=1;marginBottom=0;labelBackgroundColor=#FFFFFF;" parent="1" vertex="1">
                    <mxGeometry x="-147" y="-873" width="230" height="104" as="geometry"/>
                </mxCell>
                <mxCell id="5c4Ob_BE5MfwwZ4g9xx3-6" value="cred_def_id" style="text;strokeColor=none;fillColor=#FFFFFF;align=left;verticalAlign=top;spacingLeft=4;spacingRight=4;overflow=hidden;rotatable=0;points=[[0,0.5],[1,0.5]];portConstraint=eastwest;labelBackgroundColor=#FFFFFF;" parent="5c4Ob_BE5MfwwZ4g9xx3-5" vertex="1">
                    <mxGeometry y="26" width="230" height="26" as="geometry"/>
                </mxCell>
                <mxCell id="jC2d6KhwjWWk40cOjQq3-2" value="credential_signing_keys" style="text;strokeColor=none;fillColor=#FFFFFF;align=left;verticalAlign=top;spacingLeft=4;spacingRight=4;overflow=hidden;rotatable=0;points=[[0,0.5],[1,0.5]];portConstraint=eastwest;labelBackgroundColor=#FFFFFF;" parent="5c4Ob_BE5MfwwZ4g9xx3-5" vertex="1">
                    <mxGeometry y="52" width="230" height="26" as="geometry"/>
                </mxCell>
                <mxCell id="15" value="optional: revocation_signing_keys" style="text;strokeColor=none;fillColor=#FFFFFF;align=left;verticalAlign=top;spacingLeft=4;spacingRight=4;overflow=hidden;rotatable=0;points=[[0,0.5],[1,0.5]];portConstraint=eastwest;labelBackgroundColor=#FFFFFF;" parent="5c4Ob_BE5MfwwZ4g9xx3-5" vertex="1">
                    <mxGeometry y="78" width="230" height="26" as="geometry"/>
                </mxCell>
                <mxCell id="5c4Ob_BE5MfwwZ4g9xx3-9" value="Revocation Registry" style="swimlane;fontStyle=1;childLayout=stackLayout;horizontal=1;startSize=26;fillColor=#FFFFFF;horizontalStack=0;resizeParent=1;resizeParentMax=0;resizeLast=0;collapsible=1;marginBottom=0;labelBackgroundColor=#FFFFFF;" parent="1" vertex="1">
                    <mxGeometry x="193" y="-621" width="170" height="130" as="geometry"/>
                </mxCell>
                <mxCell id="13" value="rev_reg_id&#10;" style="text;strokeColor=none;fillColor=#FFFFFF;align=left;verticalAlign=top;spacingLeft=4;spacingRight=4;overflow=hidden;rotatable=0;points=[[0,0.5],[1,0.5]];portConstraint=eastwest;labelBackgroundColor=#FFFFFF;" parent="5c4Ob_BE5MfwwZ4g9xx3-9" vertex="1">
                    <mxGeometry y="26" width="170" height="26" as="geometry"/>
                </mxCell>
                <mxCell id="5c4Ob_BE5MfwwZ4g9xx3-10" value="cred_def_id" style="text;strokeColor=none;fillColor=#FFFFFF;align=left;verticalAlign=top;spacingLeft=4;spacingRight=4;overflow=hidden;rotatable=0;points=[[0,0.5],[1,0.5]];portConstraint=eastwest;labelBackgroundColor=#FFFFFF;" parent="5c4Ob_BE5MfwwZ4g9xx3-9" vertex="1">
                    <mxGeometry y="52" width="170" height="26" as="geometry"/>
                </mxCell>
                <mxCell id="14" value="tails_file_location_url" style="text;strokeColor=none;fillColor=#FFFFFF;align=left;verticalAlign=top;spacingLeft=4;spacingRight=4;overflow=hidden;rotatable=0;points=[[0,0.5],[1,0.5]];portConstraint=eastwest;labelBackgroundColor=#FFFFFF;" parent="5c4Ob_BE5MfwwZ4g9xx3-9" vertex="1">
                    <mxGeometry y="78" width="170" height="26" as="geometry"/>
                </mxCell>
                <mxCell id="16" value="cryptographic_accumulator" style="text;strokeColor=none;fillColor=#FFFFFF;align=left;verticalAlign=top;spacingLeft=4;spacingRight=4;overflow=hidden;rotatable=0;points=[[0,0.5],[1,0.5]];portConstraint=eastwest;labelBackgroundColor=#FFFFFF;" parent="5c4Ob_BE5MfwwZ4g9xx3-9" vertex="1">
                    <mxGeometry y="104" width="170" height="26" as="geometry"/>
                </mxCell>
                <mxCell id="5c4Ob_BE5MfwwZ4g9xx3-39" value="" style="edgeStyle=orthogonalEdgeStyle;rounded=0;orthogonalLoop=1;jettySize=auto;html=1;startArrow=none;startFill=0;endArrow=none;endFill=0;fontSize=20;labelBackgroundColor=#FFFFFF;" parent="1" source="5c4Ob_BE5MfwwZ4g9xx3-13" target="5c4Ob_BE5MfwwZ4g9xx3-9" edge="1">
                    <mxGeometry x="-0.7561" y="25" relative="1" as="geometry">
                        <mxPoint as="offset"/>
                    </mxGeometry>
                </mxCell>
                <mxCell id="5c4Ob_BE5MfwwZ4g9xx3-13" value="Revocation Registry Entry" style="swimlane;fontStyle=1;childLayout=stackLayout;horizontal=1;startSize=26;fillColor=#FFFFFF;horizontalStack=0;resizeParent=1;resizeParentMax=0;resizeLast=0;collapsible=1;marginBottom=0;labelBackgroundColor=#FFFFFF;" parent="1" vertex="1">
                    <mxGeometry x="183" y="-395" width="190" height="78" as="geometry"/>
                </mxCell>
                <mxCell id="5c4Ob_BE5MfwwZ4g9xx3-14" value="rev_reg_entry_id" style="text;strokeColor=none;fillColor=#FFFFFF;align=left;verticalAlign=top;spacingLeft=4;spacingRight=4;overflow=hidden;rotatable=0;points=[[0,0.5],[1,0.5]];portConstraint=eastwest;labelBackgroundColor=#FFFFFF;" parent="5c4Ob_BE5MfwwZ4g9xx3-13" vertex="1">
                    <mxGeometry y="26" width="190" height="26" as="geometry"/>
                </mxCell>
                <mxCell id="5c4Ob_BE5MfwwZ4g9xx3-15" value="revocation_data" style="text;strokeColor=none;fillColor=#FFFFFF;align=left;verticalAlign=top;spacingLeft=4;spacingRight=4;overflow=hidden;rotatable=0;points=[[0,0.5],[1,0.5]];portConstraint=eastwest;labelBackgroundColor=#FFFFFF;" parent="5c4Ob_BE5MfwwZ4g9xx3-13" vertex="1">
                    <mxGeometry y="52" width="190" height="26" as="geometry"/>
                </mxCell>
                <mxCell id="5c4Ob_BE5MfwwZ4g9xx3-24" value="" style="edgeStyle=orthogonalEdgeStyle;rounded=0;orthogonalLoop=1;jettySize=auto;html=1;startArrow=none;startFill=0;fontSize=20;labelBackgroundColor=#FFFFFF;endArrow=none;endFill=0;" parent="1" source="5c4Ob_BE5MfwwZ4g9xx3-20" target="5c4Ob_BE5MfwwZ4g9xx3-5" edge="1">
                    <mxGeometry x="0.0698" y="20" relative="1" as="geometry">
                        <mxPoint as="offset"/>
                    </mxGeometry>
                </mxCell>
                <mxCell id="5c4Ob_BE5MfwwZ4g9xx3-20" value="PUBLIC_CRED_DEF" style="swimlane;fontStyle=1;childLayout=stackLayout;horizontal=1;startSize=26;fillColor=#FFFFFF;horizontalStack=0;resizeParent=1;resizeParentMax=0;resizeLast=0;collapsible=1;marginBottom=0;labelBackgroundColor=#FFFFFF;" parent="1" vertex="1">
                    <mxGeometry x="-147" y="-670" width="230" height="130" as="geometry"/>
                </mxCell>
                <mxCell id="5c4Ob_BE5MfwwZ4g9xx3-21" value="cred_def_id" style="text;strokeColor=none;fillColor=#FFFFFF;align=left;verticalAlign=top;spacingLeft=4;spacingRight=4;overflow=hidden;rotatable=0;points=[[0,0.5],[1,0.5]];portConstraint=eastwest;labelBackgroundColor=#FFFFFF;" parent="5c4Ob_BE5MfwwZ4g9xx3-20" vertex="1">
                    <mxGeometry y="26" width="230" height="26" as="geometry"/>
                </mxCell>
                <mxCell id="5c4Ob_BE5MfwwZ4g9xx3-30" value="schema_id" style="text;strokeColor=none;fillColor=#FFFFFF;align=left;verticalAlign=top;spacingLeft=4;spacingRight=4;overflow=hidden;rotatable=0;points=[[0,0.5],[1,0.5]];portConstraint=eastwest;labelBackgroundColor=#FFFFFF;" parent="5c4Ob_BE5MfwwZ4g9xx3-20" vertex="1">
                    <mxGeometry y="52" width="230" height="26" as="geometry"/>
                </mxCell>
                <mxCell id="5c4Ob_BE5MfwwZ4g9xx3-23" value="credential_verification_keys" style="text;strokeColor=none;fillColor=#FFFFFF;align=left;verticalAlign=top;spacingLeft=4;spacingRight=4;overflow=hidden;rotatable=0;points=[[0,0.5],[1,0.5]];portConstraint=eastwest;labelBackgroundColor=#FFFFFF;" parent="5c4Ob_BE5MfwwZ4g9xx3-20" vertex="1">
                    <mxGeometry y="78" width="230" height="26" as="geometry"/>
                </mxCell>
                <mxCell id="5c4Ob_BE5MfwwZ4g9xx3-31" value="revocation_verification_keys (optional)" style="text;strokeColor=none;fillColor=#FFFFFF;align=left;verticalAlign=top;spacingLeft=4;spacingRight=4;overflow=hidden;rotatable=0;points=[[0,0.5],[1,0.5]];portConstraint=eastwest;labelBackgroundColor=#FFFFFF;" parent="5c4Ob_BE5MfwwZ4g9xx3-20" vertex="1">
                    <mxGeometry y="104" width="230" height="26" as="geometry"/>
                </mxCell>
                <mxCell id="5c4Ob_BE5MfwwZ4g9xx3-36" style="edgeStyle=orthogonalEdgeStyle;rounded=0;orthogonalLoop=1;jettySize=auto;html=1;startArrow=none;startFill=0;endArrow=none;endFill=0;labelBackgroundColor=#FFFFFF;exitX=0;exitY=0.5;exitDx=0;exitDy=0;" parent="1" source="5c4Ob_BE5MfwwZ4g9xx3-10" edge="1">
                    <mxGeometry relative="1" as="geometry">
                        <mxPoint x="193" y="-579" as="sourcePoint"/>
                        <mxPoint x="83" y="-556" as="targetPoint"/>
                    </mxGeometry>
                </mxCell>
                <mxCell id="5c4Ob_BE5MfwwZ4g9xx3-57" style="edgeStyle=orthogonalEdgeStyle;rounded=0;orthogonalLoop=1;jettySize=auto;html=1;fontSize=20;fontColor=#FFFFFF;startArrow=none;startFill=0;endArrow=none;endFill=0;exitX=0.576;exitY=-0.001;exitDx=0;exitDy=0;exitPerimeter=0;" parent="1" source="32" edge="1">
                    <mxGeometry relative="1" as="geometry">
                        <Array as="points">
                            <mxPoint x="-362" y="-703"/>
                            <mxPoint x="-362" y="-808"/>
                        </Array>
                        <mxPoint x="-147" y="-808" as="targetPoint"/>
                        <mxPoint x="-334.5" y="-704" as="sourcePoint"/>
                    </mxGeometry>
                </mxCell>
                <mxCell id="5c4Ob_BE5MfwwZ4g9xx3-59" style="edgeStyle=orthogonalEdgeStyle;rounded=0;orthogonalLoop=1;jettySize=auto;html=1;entryX=0;entryY=0.25;entryDx=0;entryDy=0;fontSize=20;fontColor=#000000;startArrow=none;startFill=0;endArrow=none;endFill=0;exitX=1;exitY=1;exitDx=0;exitDy=0;" parent="1" source="jC2d6KhwjWWk40cOjQq3-34" target="5c4Ob_BE5MfwwZ4g9xx3-9" edge="1">
                    <mxGeometry relative="1" as="geometry">
                        <Array as="points">
                            <mxPoint x="-400" y="-950"/>
                            <mxPoint x="140" y="-950"/>
                            <mxPoint x="140" y="-590"/>
                            <mxPoint x="193" y="-590"/>
                        </Array>
                        <mxPoint x="-460" y="-1090" as="sourcePoint"/>
                    </mxGeometry>
                </mxCell>
                <mxCell id="jC2d6KhwjWWk40cOjQq3-42" style="edgeStyle=orthogonalEdgeStyle;rounded=0;orthogonalLoop=1;jettySize=auto;html=1;entryX=0.5;entryY=0;entryDx=0;entryDy=0;fontSize=15;fontColor=default;startArrow=none;startFill=0;endArrow=none;endFill=0;exitX=0.5;exitY=1;exitDx=0;exitDy=0;" parent="1" source="32" target="5c4Ob_BE5MfwwZ4g9xx3-73" edge="1">
                    <mxGeometry relative="1" as="geometry">
                        <mxPoint x="-377" y="-536" as="sourcePoint"/>
                    </mxGeometry>
                </mxCell>
                <mxCell id="jC2d6KhwjWWk40cOjQq3-45" style="edgeStyle=orthogonalEdgeStyle;rounded=0;orthogonalLoop=1;jettySize=auto;html=1;entryX=0.5;entryY=0;entryDx=0;entryDy=0;fontSize=15;fontColor=default;startArrow=none;startFill=0;endArrow=none;endFill=0;" parent="1" source="5c4Ob_BE5MfwwZ4g9xx3-73" target="jC2d6KhwjWWk40cOjQq3-40" edge="1">
                    <mxGeometry relative="1" as="geometry"/>
                </mxCell>
                <mxCell id="5c4Ob_BE5MfwwZ4g9xx3-73" value="Blinded Link Secret" style="swimlane;fontStyle=1;childLayout=stackLayout;horizontal=1;startSize=26;fillColor=default;horizontalStack=0;resizeParent=1;resizeParentMax=0;resizeLast=0;collapsible=1;marginBottom=0;" parent="1" vertex="1">
                    <mxGeometry x="-462" y="-459" width="170" height="52" as="geometry">
                        <mxRectangle x="-50" y="190" width="80" height="30" as="alternateBounds"/>
                    </mxGeometry>
                </mxCell>
                <mxCell id="5c4Ob_BE5MfwwZ4g9xx3-74" value="blinded_form_of_link_secret" style="text;strokeColor=none;fillColor=default;align=left;verticalAlign=top;spacingLeft=4;spacingRight=4;overflow=hidden;rotatable=0;points=[[0,0.5],[1,0.5]];portConstraint=eastwest;" parent="5c4Ob_BE5MfwwZ4g9xx3-73" vertex="1">
                    <mxGeometry y="26" width="170" height="26" as="geometry"/>
                </mxCell>
                <mxCell id="jC2d6KhwjWWk40cOjQq3-12" value="" style="edgeStyle=orthogonalEdgeStyle;rounded=0;orthogonalLoop=1;jettySize=auto;html=1;startArrow=none;startFill=0;endArrow=none;endFill=0;fontSize=20;labelBackgroundColor=#FFFFFF;exitX=0.5;exitY=0;exitDx=0;exitDy=0;entryX=0.5;entryY=1;entryDx=0;entryDy=0;" parent="1" target="5c4Ob_BE5MfwwZ4g9xx3-20" edge="1">
                    <mxGeometry x="0.6667" y="-29" relative="1" as="geometry">
                        <mxPoint as="offset"/>
                        <mxPoint x="-32" y="-395" as="sourcePoint"/>
                        <mxPoint x="-147" y="-584" as="targetPoint"/>
                    </mxGeometry>
                </mxCell>
                <mxCell id="jC2d6KhwjWWk40cOjQq3-13" value="&lt;font style=&quot;font-size: 15px;&quot;&gt;1 .. 1&lt;/font&gt;" style="rounded=0;whiteSpace=wrap;html=1;strokeColor=none;fillColor=none;" parent="1" vertex="1">
                    <mxGeometry x="-37" y="-425" width="70" height="30" as="geometry"/>
                </mxCell>
                <mxCell id="jC2d6KhwjWWk40cOjQq3-14" value="&lt;font style=&quot;font-size: 15px;&quot;&gt;0 .. n&lt;/font&gt;" style="rounded=0;whiteSpace=wrap;html=1;strokeColor=none;fillColor=none;" parent="1" vertex="1">
                    <mxGeometry x="-107" y="-536" width="70" height="30" as="geometry"/>
                </mxCell>
                <mxCell id="jC2d6KhwjWWk40cOjQq3-15" value="&lt;font style=&quot;font-size: 15px;&quot;&gt;1 .. 1&lt;/font&gt;" style="rounded=0;whiteSpace=wrap;html=1;strokeColor=none;fillColor=none;" parent="1" vertex="1">
                    <mxGeometry x="70" y="-590" width="70" height="30" as="geometry"/>
                </mxCell>
                <mxCell id="jC2d6KhwjWWk40cOjQq3-16" value="&lt;font style=&quot;font-size: 15px;&quot;&gt;0 .. n&lt;/font&gt;" style="rounded=0;whiteSpace=wrap;html=1;strokeColor=none;fillColor=none;" parent="1" vertex="1">
                    <mxGeometry x="133" y="-550" width="70" height="30" as="geometry"/>
                </mxCell>
                <mxCell id="jC2d6KhwjWWk40cOjQq3-17" value="&lt;font style=&quot;font-size: 15px;&quot;&gt;0 .. n&lt;/font&gt;" style="rounded=0;whiteSpace=wrap;html=1;strokeColor=none;fillColor=none;" parent="1" vertex="1">
                    <mxGeometry x="283" y="-425" width="70" height="30" as="geometry"/>
                </mxCell>
                <mxCell id="jC2d6KhwjWWk40cOjQq3-18" value="&lt;font style=&quot;font-size: 15px;&quot;&gt;1 .. 1&lt;/font&gt;" style="rounded=0;whiteSpace=wrap;html=1;strokeColor=none;fillColor=none;" parent="1" vertex="1">
                    <mxGeometry x="203" y="-489" width="70" height="30" as="geometry"/>
                </mxCell>
                <mxCell id="jC2d6KhwjWWk40cOjQq3-19" value="&lt;font style=&quot;font-size: 15px;&quot;&gt;1 .. 1&lt;/font&gt;" style="rounded=0;whiteSpace=wrap;html=1;strokeColor=none;fillColor=none;" parent="1" vertex="1">
                    <mxGeometry x="-97" y="-769" width="70" height="30" as="geometry"/>
                </mxCell>
                <mxCell id="jC2d6KhwjWWk40cOjQq3-20" value="&lt;font style=&quot;font-size: 15px;&quot;&gt;1 .. 1&lt;/font&gt;" style="rounded=0;whiteSpace=wrap;html=1;strokeColor=none;fillColor=none;" parent="1" vertex="1">
                    <mxGeometry x="-37" y="-698" width="70" height="30" as="geometry"/>
                </mxCell>
                <mxCell id="jC2d6KhwjWWk40cOjQq3-27" value="" style="edgeStyle=orthogonalEdgeStyle;rounded=0;orthogonalLoop=1;jettySize=auto;html=1;startArrow=none;startFill=0;endArrow=none;endFill=0;fontSize=20;labelBackgroundColor=#FFFFFF;exitX=0.5;exitY=0;exitDx=0;exitDy=0;entryX=0.5;entryY=1;entryDx=0;entryDy=0;entryPerimeter=0;" parent="1" source="5c4Ob_BE5MfwwZ4g9xx3-9" target="jC2d6KhwjWWk40cOjQq3-24" edge="1">
                    <mxGeometry x="0.6667" y="-29" relative="1" as="geometry">
                        <mxPoint as="offset"/>
                        <mxPoint x="483" y="-740" as="sourcePoint"/>
                        <mxPoint x="663" y="-740" as="targetPoint"/>
                    </mxGeometry>
                </mxCell>
                <mxCell id="jC2d6KhwjWWk40cOjQq3-28" value="" style="group" parent="1" vertex="1" connectable="0">
                    <mxGeometry x="193" y="-950" width="177" height="200" as="geometry"/>
                </mxCell>
                <mxCell id="jC2d6KhwjWWk40cOjQq3-24" value="" style="whiteSpace=wrap;html=1;shape=mxgraph.basic.document;fontSize=15;fillColor=default;horizontal=1;" parent="jC2d6KhwjWWk40cOjQq3-28" vertex="1">
                    <mxGeometry width="170" height="200" as="geometry"/>
                </mxCell>
                <mxCell id="jC2d6KhwjWWk40cOjQq3-25" value="&lt;b&gt;Tails File&lt;/b&gt;" style="rounded=0;whiteSpace=wrap;html=1;fontSize=15;fillColor=none;fontColor=default;labelBackgroundColor=none;labelBorderColor=none;strokeColor=none;" parent="jC2d6KhwjWWk40cOjQq3-28" vertex="1">
                    <mxGeometry x="37.38" y="7.22" width="95.23322448979592" height="33.33" as="geometry"/>
                </mxCell>
                <mxCell id="jC2d6KhwjWWk40cOjQq3-26" value="list_of_big_primes" style="text;strokeColor=none;fillColor=none;align=left;verticalAlign=top;spacingLeft=4;spacingRight=4;overflow=hidden;rotatable=0;points=[[0,0.5],[1,0.5]];portConstraint=eastwest;labelBackgroundColor=#FFFFFF;" parent="jC2d6KhwjWWk40cOjQq3-28" vertex="1">
                    <mxGeometry x="30.701183673469387" y="85.56" width="115.59183673469389" height="28.89" as="geometry"/>
                </mxCell>
                <mxCell id="jC2d6KhwjWWk40cOjQq3-29" value="&lt;font style=&quot;font-size: 15px;&quot;&gt;0 .. 1&lt;/font&gt;" style="rounded=0;whiteSpace=wrap;html=1;strokeColor=none;fillColor=none;" parent="1" vertex="1">
                    <mxGeometry x="133" y="-622" width="70" height="34" as="geometry"/>
                </mxCell>
                <mxCell id="jC2d6KhwjWWk40cOjQq3-30" value="&lt;font style=&quot;font-size: 15px;&quot;&gt;1 .. 1&lt;/font&gt;" style="rounded=0;whiteSpace=wrap;html=1;strokeColor=none;fillColor=none;" parent="1" vertex="1">
                    <mxGeometry x="213" y="-743" width="70" height="30" as="geometry"/>
                </mxCell>
                <mxCell id="jC2d6KhwjWWk40cOjQq3-33" value="&lt;font style=&quot;font-size: 15px;&quot;&gt;1 .. 1&lt;/font&gt;" style="rounded=0;whiteSpace=wrap;html=1;strokeColor=none;fillColor=none;" parent="1" vertex="1">
                    <mxGeometry x="273" y="-654" width="70" height="30" as="geometry"/>
                </mxCell>
                <mxCell id="jC2d6KhwjWWk40cOjQq3-34" value="&lt;font style=&quot;font-size: 15px;&quot;&gt;0 .. n&lt;/font&gt;" style="rounded=0;whiteSpace=wrap;html=1;strokeColor=none;fillColor=none;" parent="1" vertex="1">
                    <mxGeometry x="-462" y="-739" width="70" height="30" as="geometry"/>
                </mxCell>
                <mxCell id="jC2d6KhwjWWk40cOjQq3-35" value="&lt;font style=&quot;font-size: 15px;&quot;&gt;1 .. 1&lt;/font&gt;" style="rounded=0;whiteSpace=wrap;html=1;strokeColor=none;fillColor=none;" parent="1" vertex="1">
                    <mxGeometry x="-213" y="-836" width="70" height="30" as="geometry"/>
                </mxCell>
                <mxCell id="jC2d6KhwjWWk40cOjQq3-36" value="&lt;font style=&quot;font-size: 15px;&quot;&gt;0 .. n&lt;/font&gt;" style="rounded=0;whiteSpace=wrap;html=1;strokeColor=none;fillColor=none;" parent="1" vertex="1">
                    <mxGeometry x="-362" y="-739" width="70" height="30" as="geometry"/>
                </mxCell>
                <mxCell id="jC2d6KhwjWWk40cOjQq3-40" value="Link Secret" style="swimlane;fontStyle=1;childLayout=stackLayout;horizontal=1;startSize=26;fillColor=default;horizontalStack=0;resizeParent=1;resizeParentMax=0;resizeLast=0;collapsible=1;marginBottom=0;" parent="1" vertex="1">
                    <mxGeometry x="-462" y="-324" width="170" height="52" as="geometry">
                        <mxRectangle x="-50" y="190" width="80" height="30" as="alternateBounds"/>
                    </mxGeometry>
                </mxCell>
                <mxCell id="jC2d6KhwjWWk40cOjQq3-41" value="secret" style="text;strokeColor=none;fillColor=default;align=left;verticalAlign=top;spacingLeft=4;spacingRight=4;overflow=hidden;rotatable=0;points=[[0,0.5],[1,0.5]];portConstraint=eastwest;" parent="jC2d6KhwjWWk40cOjQq3-40" vertex="1">
                    <mxGeometry y="26" width="170" height="26" as="geometry"/>
                </mxCell>
                <mxCell id="jC2d6KhwjWWk40cOjQq3-43" value="&lt;font style=&quot;font-size: 15px;&quot;&gt;1 .. 1&lt;/font&gt;" style="rounded=0;whiteSpace=wrap;html=1;strokeColor=none;fillColor=none;" parent="1" vertex="1">
                    <mxGeometry x="-380" y="-488" width="70" height="30" as="geometry"/>
                </mxCell>
                <mxCell id="jC2d6KhwjWWk40cOjQq3-44" value="&lt;font style=&quot;font-size: 15px;&quot;&gt;1 .. 1&lt;/font&gt;" style="rounded=0;whiteSpace=wrap;html=1;strokeColor=none;fillColor=none;" parent="1" vertex="1">
                    <mxGeometry x="-448" y="-550" width="70" height="30" as="geometry"/>
                </mxCell>
                <mxCell id="2" value="&lt;font color=&quot;#ff8000&quot; size=&quot;1&quot;&gt;&lt;b style=&quot;font-size: 14px&quot;&gt;Credential Definition&lt;/b&gt;&lt;/font&gt;" style="whiteSpace=wrap;html=1;dashed=1;strokeWidth=3;fillColor=none;strokeColor=#FF8000;align=center;verticalAlign=top;" parent="1" vertex="1">
                    <mxGeometry x="-200" y="-910" width="331" height="409" as="geometry"/>
                </mxCell>
                <mxCell id="jC2d6KhwjWWk40cOjQq3-46" value="&lt;font style=&quot;font-size: 15px;&quot;&gt;1 .. 1&lt;/font&gt;" style="rounded=0;whiteSpace=wrap;html=1;strokeColor=none;fillColor=none;" parent="1" vertex="1">
                    <mxGeometry x="-380" y="-354" width="70" height="30" as="geometry"/>
                </mxCell>
                <mxCell id="jC2d6KhwjWWk40cOjQq3-47" value="&lt;span style=&quot;font-size: 15px;&quot;&gt;0 .. n&lt;/span&gt;" style="rounded=0;whiteSpace=wrap;html=1;strokeColor=none;fillColor=none;" parent="1" vertex="1">
                    <mxGeometry x="-440" y="-407" width="70" height="30" as="geometry"/>
                </mxCell>
                <mxCell id="jC2d6KhwjWWk40cOjQq3-49" value="&lt;font style=&quot;font-size: 15px;&quot;&gt;1 .. 1&lt;/font&gt;" style="rounded=0;whiteSpace=wrap;html=1;strokeColor=none;fillColor=none;" parent="1" vertex="1">
                    <mxGeometry x="-213" y="-665" width="70" height="30" as="geometry"/>
                </mxCell>
                <mxCell id="jC2d6KhwjWWk40cOjQq3-50" value="&lt;font style=&quot;font-size: 15px;&quot;&gt;0 .. n&lt;/font&gt;" style="rounded=0;whiteSpace=wrap;html=1;strokeColor=none;fillColor=none;" parent="1" vertex="1">
                    <mxGeometry x="-300" y="-620" width="70" height="30" as="geometry"/>
                </mxCell>
                <mxCell id="3" value="&lt;font style=&quot;font-size: 33px&quot;&gt;&amp;nbsp;Verifier&lt;/font&gt;" style="rounded=0;whiteSpace=wrap;html=1;fontSize=20;strokeWidth=3;fillColor=#f8cecc;strokeColor=#b85450;align=left;verticalAlign=top;" parent="1" vertex="1">
                    <mxGeometry x="-740" y="-1010" width="230" height="770" as="geometry"/>
                </mxCell>
                <mxCell id="10" style="edgeStyle=none;html=1;entryX=1;entryY=0.5;entryDx=0;entryDy=0;exitX=0;exitY=0.5;exitDx=0;exitDy=0;endArrow=none;endFill=0;" parent="1" edge="1">
                    <mxGeometry relative="1" as="geometry">
                        <mxPoint x="-462" y="-639" as="sourcePoint"/>
                        <mxPoint x="-560" y="-639" as="targetPoint"/>
                    </mxGeometry>
                </mxCell>
                <mxCell id="11" value="&lt;font style=&quot;font-size: 15px&quot;&gt;0 .. n&lt;/font&gt;" style="rounded=0;whiteSpace=wrap;html=1;strokeColor=none;fillColor=none;" parent="1" vertex="1">
                    <mxGeometry x="-520" y="-670" width="70" height="30" as="geometry"/>
                </mxCell>
                <mxCell id="12" value="&lt;font style=&quot;font-size: 15px&quot;&gt;0 .. n&lt;/font&gt;" style="rounded=0;whiteSpace=wrap;html=1;strokeColor=none;fillColor=none;" parent="1" vertex="1">
                    <mxGeometry x="-570" y="-635" width="70" height="30" as="geometry"/>
                </mxCell>
                <mxCell id="19" value="AnonCred Presentation" style="swimlane;fontStyle=1;childLayout=stackLayout;horizontal=1;startSize=26;fillColor=default;horizontalStack=0;resizeParent=1;resizeParentMax=0;resizeLast=0;collapsible=1;marginBottom=0;" parent="1" vertex="1">
                    <mxGeometry x="-730" y="-716" width="170" height="156" as="geometry">
                        <mxRectangle x="-50" y="190" width="80" height="30" as="alternateBounds"/>
                    </mxGeometry>
                </mxCell>
                <mxCell id="20" value="name" style="text;strokeColor=none;fillColor=default;align=left;verticalAlign=top;spacingLeft=4;spacingRight=4;overflow=hidden;rotatable=0;points=[[0,0.5],[1,0.5]];portConstraint=eastwest;" parent="19" vertex="1">
                    <mxGeometry y="26" width="170" height="26" as="geometry"/>
                </mxCell>
                <mxCell id="25" value="revealed_attributes" style="text;strokeColor=none;fillColor=default;align=left;verticalAlign=top;spacingLeft=4;spacingRight=4;overflow=hidden;rotatable=0;points=[[0,0.5],[1,0.5]];portConstraint=eastwest;" parent="19" vertex="1">
                    <mxGeometry y="52" width="170" height="26" as="geometry"/>
                </mxCell>
                <mxCell id="29" value="self_attested_attributes" style="text;strokeColor=none;fillColor=default;align=left;verticalAlign=top;spacingLeft=4;spacingRight=4;overflow=hidden;rotatable=0;points=[[0,0.5],[1,0.5]];portConstraint=eastwest;" parent="19" vertex="1">
                    <mxGeometry y="78" width="170" height="26" as="geometry"/>
                </mxCell>
                <mxCell id="30" value="predicates" style="text;strokeColor=none;fillColor=default;align=left;verticalAlign=top;spacingLeft=4;spacingRight=4;overflow=hidden;rotatable=0;points=[[0,0.5],[1,0.5]];portConstraint=eastwest;" parent="19" vertex="1">
                    <mxGeometry y="104" width="170" height="26" as="geometry"/>
                </mxCell>
                <mxCell id="31" value="proof_signature(s)" style="text;strokeColor=none;fillColor=default;align=left;verticalAlign=top;spacingLeft=4;spacingRight=4;overflow=hidden;rotatable=0;points=[[0,0.5],[1,0.5]];portConstraint=eastwest;" parent="19" vertex="1">
                    <mxGeometry y="130" width="170" height="26" as="geometry"/>
                </mxCell>
                <mxCell id="43" style="edgeStyle=none;html=1;endArrow=none;endFill=0;entryX=0;entryY=0.5;entryDx=0;entryDy=0;" parent="1" source="32" target="5c4Ob_BE5MfwwZ4g9xx3-21" edge="1">
                    <mxGeometry relative="1" as="geometry">
                        <mxPoint x="-150" y="-628" as="targetPoint"/>
                    </mxGeometry>
                </mxCell>
                <mxCell id="32" value="AnonCred Credential" style="swimlane;fontStyle=1;childLayout=stackLayout;horizontal=1;startSize=26;fillColor=default;horizontalStack=0;resizeParent=1;resizeParentMax=0;resizeLast=0;collapsible=1;marginBottom=0;" parent="1" vertex="1">
                    <mxGeometry x="-462" y="-709" width="170" height="156" as="geometry">
                        <mxRectangle x="-50" y="190" width="80" height="30" as="alternateBounds"/>
                    </mxGeometry>
                </mxCell>
                <mxCell id="33" value="schema_id" style="text;strokeColor=none;fillColor=default;align=left;verticalAlign=top;spacingLeft=4;spacingRight=4;overflow=hidden;rotatable=0;points=[[0,0.5],[1,0.5]];portConstraint=eastwest;" parent="32" vertex="1">
                    <mxGeometry y="26" width="170" height="26" as="geometry"/>
                </mxCell>
                <mxCell id="38" value="cred_def_id" style="text;strokeColor=none;fillColor=default;align=left;verticalAlign=top;spacingLeft=4;spacingRight=4;overflow=hidden;rotatable=0;points=[[0,0.5],[1,0.5]];portConstraint=eastwest;" parent="32" vertex="1">
                    <mxGeometry y="52" width="170" height="26" as="geometry"/>
                </mxCell>
                <mxCell id="39" value="attribute_values" style="text;strokeColor=none;fillColor=default;align=left;verticalAlign=top;spacingLeft=4;spacingRight=4;overflow=hidden;rotatable=0;points=[[0,0.5],[1,0.5]];portConstraint=eastwest;" parent="32" vertex="1">
                    <mxGeometry y="78" width="170" height="26" as="geometry"/>
                </mxCell>
                <mxCell id="40" value="signature" style="text;strokeColor=none;fillColor=default;align=left;verticalAlign=top;spacingLeft=4;spacingRight=4;overflow=hidden;rotatable=0;points=[[0,0.5],[1,0.5]];portConstraint=eastwest;" parent="32" vertex="1">
                    <mxGeometry y="104" width="170" height="26" as="geometry"/>
                </mxCell>
                <mxCell id="41" value="rev_reg_id (optional)" style="text;strokeColor=none;fillColor=default;align=left;verticalAlign=top;spacingLeft=4;spacingRight=4;overflow=hidden;rotatable=0;points=[[0,0.5],[1,0.5]];portConstraint=eastwest;" parent="32" vertex="1">
                    <mxGeometry y="130" width="170" height="26" as="geometry"/>
                </mxCell>
                <mxCell id="45" value="SCHEMA" style="swimlane;fontStyle=1;childLayout=stackLayout;horizontal=1;startSize=26;fillColor=#FFFFFF;horizontalStack=0;resizeParent=1;resizeParentMax=0;resizeLast=0;collapsible=1;marginBottom=0;labelBackgroundColor=#FFFFFF;" vertex="1" parent="1">
                    <mxGeometry x="-127" y="-395" width="190" height="130" as="geometry"/>
                </mxCell>
                <mxCell id="46" value="schema_id" style="text;strokeColor=none;fillColor=#FFFFFF;align=left;verticalAlign=top;spacingLeft=4;spacingRight=4;overflow=hidden;rotatable=0;points=[[0,0.5],[1,0.5]];portConstraint=eastwest;labelBackgroundColor=#FFFFFF;" vertex="1" parent="45">
                    <mxGeometry y="26" width="190" height="26" as="geometry"/>
                </mxCell>
                <mxCell id="47" value="name" style="text;strokeColor=none;fillColor=#FFFFFF;align=left;verticalAlign=top;spacingLeft=4;spacingRight=4;overflow=hidden;rotatable=0;points=[[0,0.5],[1,0.5]];portConstraint=eastwest;labelBackgroundColor=#FFFFFF;" vertex="1" parent="45">
                    <mxGeometry y="52" width="190" height="26" as="geometry"/>
                </mxCell>
                <mxCell id="48" value="version" style="text;strokeColor=none;fillColor=#FFFFFF;align=left;verticalAlign=top;spacingLeft=4;spacingRight=4;overflow=hidden;rotatable=0;points=[[0,0.5],[1,0.5]];portConstraint=eastwest;labelBackgroundColor=#FFFFFF;" vertex="1" parent="45">
                    <mxGeometry y="78" width="190" height="26" as="geometry"/>
                </mxCell>
                <mxCell id="49" value="attribute_names" style="text;strokeColor=none;fillColor=#FFFFFF;align=left;verticalAlign=top;spacingLeft=4;spacingRight=4;overflow=hidden;rotatable=0;points=[[0,0.5],[1,0.5]];portConstraint=eastwest;labelBackgroundColor=#FFFFFF;" vertex="1" parent="45">
                    <mxGeometry y="104" width="190" height="26" as="geometry"/>
                </mxCell>
            </root>
        </mxGraphModel>
    </diagram>
</mxfile>